<?xml version="1.0" standalone="no"?>
<!DOCTYPE svg PUBLIC "-//W3C//DTD SVG 20010904//EN"
 "http://www.w3.org/TR/2001/REC-SVG-20010904/DTD/svg10.dtd">
<svg version="1.0" xmlns="http://www.w3.org/2000/svg"
 width="320.000000pt" height="320.000000pt" viewBox="0 0 320.000000 320.000000"
 preserveAspectRatio="xMidYMid meet">
<metadata>
Created by potrace 1.14, written by Peter Selinger 2001-2017
</metadata>
<g transform="translate(0.000000,320.000000) scale(0.100000,-0.100000)"
fill="#000000" stroke="none">
<path d="M1383 3081 c-16 -12 -16 -13 -1 -8 10 3 20 2 23 -3 4 -6 0 -10 -7
-10 -10 0 -10 -2 1 -9 11 -7 11 -9 0 -14 -11 -4 -11 -6 -1 -6 8 -1 10 -6 6
-13 -4 -7 2 -5 13 5 11 9 23 14 26 10 4 -3 7 -1 7 6 0 8 -7 11 -17 7 -11 -4
-8 1 7 13 13 11 28 17 33 14 5 -3 14 1 19 8 8 11 9 10 4 -3 -3 -10 -1 -18 5
-18 6 0 6 -6 0 -18 -6 -12 -6 -23 -1 -28 6 -6 -26 -9 -81 -9 -76 -1 -89 2 -84
15 4 12 3 12 -8 -1 -13 -17 -12 -17 -397 -23 -92 -1 -124 -5 -122 -14 1 -7 -4
-12 -10 -12 -7 -1 -2 -7 11 -14 15 -8 20 -16 12 -20 -6 -4 -11 -2 -11 3 0 6
-8 11 -17 11 -14 0 -15 -2 -5 -9 8 -4 13 -11 13 -15 -2 -16 0 -18 12 -7 8 6
18 7 22 3 5 -4 5 -2 1 5 -4 8 0 11 14 8 11 -2 19 -1 16 3 -2 4 7 8 20 8 26 2
29 -3 14 -26 -7 -11 -44 -15 -187 -17 -181 -3 -485 -11 -559 -15 -24 -2 -41
-7 -41 -15 0 -7 5 -9 11 -5 6 3 28 7 49 8 30 1 35 -1 27 -11 -8 -9 -8 -15 0
-20 6 -3 8 -10 5 -15 -3 -5 0 -12 6 -16 8 -5 9 -3 4 6 -5 8 -4 11 2 7 7 -4 10
5 8 23 -1 17 3 33 9 37 6 3 8 3 4 -2 -9 -9 9 -35 24 -35 6 0 5 7 -2 15 -7 9
-10 18 -6 22 3 3 6 0 6 -8 0 -12 2 -11 10 1 8 11 9 8 6 -12 -3 -15 -8 -33 -12
-40 -5 -10 -4 -10 5 -2 6 6 13 21 16 34 6 33 12 35 17 6 3 -15 1 -23 -5 -19
-5 3 -7 0 -5 -8 3 -8 14 -13 24 -11 18 2 18 2 -1 -10 -25 -15 -125 -18 -125
-3 0 5 -4 4 -9 -3 -4 -8 -21 -13 -37 -11 -16 1 -55 1 -87 1 l-59 -2 3 -203 c3
-150 7 -204 15 -204 7 0 12 9 11 19 -1 10 -5 18 -10 18 -4 0 -5 5 -1 11 4 8 9
7 15 -2 6 -10 8 -7 6 9 -2 13 -10 28 -18 34 -11 8 -11 9 3 5 19 -7 42 15 30
29 -4 5 2 1 14 -9 11 -9 23 -15 25 -12 3 2 5 -4 5 -15 0 -10 -4 -16 -8 -14 -4
3 -8 0 -8 -5 0 -6 4 -11 9 -11 4 0 8 -24 7 -52 -1 -33 -5 -53 -13 -53 -6 0
-15 -3 -19 -7 -3 -4 3 -6 15 -3 20 4 21 0 22 -88 0 -87 5 -232 8 -250 0 -5 6
-5 12 -1 7 4 10 1 7 -7 -3 -8 -10 -13 -16 -12 -14 3 -9 -21 7 -41 8 -9 11 -20
7 -23 -4 -4 -12 -1 -17 7 -9 13 -10 13 -6 0 2 -9 16 -15 33 -16 44 -1 53 5 50
34 -3 29 -31 42 -50 22 -8 -9 -4 -10 19 -5 29 6 29 6 11 -9 -24 -20 -30 -20
-45 -2 -9 11 -8 17 8 28 12 8 18 18 14 21 -3 4 4 7 17 7 19 0 20 2 10 15 -11
13 -14 14 -24 0 -8 -11 -15 -12 -26 -4 -13 9 -13 10 2 6 12 -4 16 0 15 14 -1
10 -5 19 -10 19 -5 0 -3 8 4 17 12 15 12 16 -6 10 -19 -7 -19 -6 -2 7 18 14
48 16 47 3 0 -4 0 -12 0 -18 0 -6 -7 -8 -16 -5 -9 4 -14 1 -12 -6 2 -6 14 -13
26 -14 15 -3 20 0 16 10 -3 8 -2 16 3 19 4 3 8 -7 8 -23 1 -21 -3 -26 -15 -22
-13 5 -13 4 0 -12 15 -19 16 -36 23 -364 2 -83 6 -155 10 -158 3 -3 15 -1 26
6 12 6 21 7 21 2 0 -5 7 -9 15 -9 17 0 18 6 5 27 -8 12 -10 12 -10 1 0 -8 -3
-11 -6 -8 -4 3 -16 2 -28 -4 -21 -10 -21 -10 -1 7 15 12 16 15 4 11 -14 -4
-16 1 -13 29 2 19 -1 32 -5 30 -4 -3 -8 1 -8 9 0 12 3 12 16 2 12 -10 14 -9 8
6 -4 11 -3 16 4 12 6 -4 8 -13 5 -21 -3 -8 0 -11 9 -8 8 3 11 13 9 22 -5 14
-4 14 6 -1 6 -9 14 -15 18 -13 10 6 8 -117 -2 -133 -6 -9 -5 -12 1 -8 11 7 12
-27 16 -321 1 -68 -2 -126 -7 -129 -5 -4 -29 -7 -54 -7 -42 -1 -45 -3 -46 -29
-1 -16 2 -31 6 -33 18 -11 -6 -33 -33 -30 -16 2 -32 0 -35 -5 -2 -4 -11 -6
-19 -2 -12 4 -15 -6 -15 -50 0 -51 -2 -55 -20 -52 -12 2 -18 0 -14 -6 3 -5 0
-16 -6 -24 -9 -11 -7 -14 9 -12 14 1 20 6 16 15 -2 7 -1 10 4 7 6 -3 9 -14 8
-24 -1 -14 -7 -18 -25 -15 -20 4 -21 2 -10 -10 7 -7 16 -12 20 -10 4 2 9 1 11
-3 3 -5 -14 -8 -38 -9 -39 0 -43 2 -34 18 7 13 6 16 -4 12 -8 -3 -14 -23 -16
-50 -1 -34 1 -44 10 -38 8 5 9 3 3 -7 -13 -21 -17 -122 -5 -114 7 3 8 0 5 -9
-4 -11 0 -16 11 -16 10 0 14 5 9 13 -6 9 -4 9 7 0 7 -7 23 -13 36 -13 19 0 22
-5 23 -42 1 -24 2 -68 3 -98 l2 -55 43 -2 c24 -2 40 2 37 7 -3 5 -13 6 -22 3
-13 -5 -15 -2 -10 11 4 9 3 15 -2 11 -5 -3 -13 0 -17 6 -4 7 -3 9 2 6 6 -3 16
-2 23 2 9 6 10 11 2 15 -6 4 -11 1 -11 -6 0 -8 -5 -6 -11 5 -6 9 -14 15 -20
12 -5 -4 -9 -1 -9 4 0 12 0 12 51 15 30 2 35 -1 35 -20 0 -13 -3 -21 -7 -18
-5 2 -13 -6 -20 -18 -11 -21 -11 -22 4 -9 15 12 21 9 18 -11 -2 -13 33 -24 71
-23 36 0 58 -18 38 -30 -5 -3 -7 -12 -3 -20 3 -9 -1 -22 -8 -31 -7 -8 -8 -14
-3 -13 5 1 14 0 19 -1 27 -6 51 -4 57 5 5 6 8 6 8 -2 0 -6 8 -9 19 -6 10 3 22
-1 26 -8 6 -8 4 -10 -6 -4 -8 5 -11 5 -7 0 4 -4 3 -14 -2 -20 -7 -9 -5 -17 7
-26 12 -10 15 -10 9 -1 -4 8 -3 11 5 10 6 -2 14 4 16 12 4 12 3 12 -5 1 -6 -8
-12 -9 -16 -3 -3 5 1 13 10 16 8 3 13 10 10 14 -3 5 9 8 27 8 29 -1 32 -4 33
-31 1 -44 -3 -50 -37 -51 -18 -1 -26 1 -19 6 9 5 9 9 1 14 -6 4 -14 0 -17 -9
-5 -13 -9 -14 -15 -4 -4 8 -11 10 -16 6 -16 -16 20 -23 123 -24 90 -1 108 -4
120 -20 11 -14 13 -14 9 -2 -5 14 5 16 73 14 58 -1 84 -5 96 -17 20 -20 21
-35 2 -19 -9 7 -17 8 -20 2 -3 -5 -1 -11 6 -13 6 -2 8 -10 4 -17 -6 -9 -11 -9
-22 0 -10 8 -11 15 -4 24 8 10 3 12 -20 10 -16 -1 -27 1 -24 6 3 5 -2 6 -10 3
-10 -4 -16 -1 -16 7 0 10 -3 11 -8 3 -4 -7 -16 -13 -26 -15 -11 -2 -18 -8 -17
-13 2 -5 -3 -13 -11 -18 -10 -8 -10 -9 2 -5 8 2 14 10 12 16 -1 6 7 11 19 11
11 0 18 -4 14 -9 -3 -5 0 -13 6 -16 5 -4 8 -12 6 -19 -3 -8 24 -11 102 -11 64
0 106 4 106 10 0 16 15 35 28 35 8 0 7 -4 -2 -9 -8 -5 -16 -16 -17 -23 -1 -12
19 -14 105 -14 64 0 109 4 113 10 5 8 8 7 8 0 0 -8 30 -12 98 -11 90 1 118 9
106 29 -10 15 -23 8 -17 -10 5 -14 3 -14 -11 3 -10 11 -15 15 -12 8 7 -13 -10
-28 -18 -15 -9 15 11 33 42 37 29 4 31 2 28 -24 l-3 -27 67 0 c58 0 66 2 51
14 -14 12 -14 12 7 7 22 -6 31 8 12 20 -6 4 -8 16 -5 28 2 12 2 16 -1 9 -3 -6
-11 -9 -16 -6 -7 5 -8 2 -3 -6 6 -9 4 -11 -6 -6 -8 4 -5 0 5 -8 11 -9 15 -16
9 -16 -14 0 -44 35 -36 43 3 4 1 7 -5 7 -11 0 -16 -14 -13 -33 1 -5 -4 -5 -10
-1 -7 4 -9 3 -5 -4 3 -6 2 -13 -4 -17 -6 -4 -8 -11 -5 -16 4 -5 1 -9 -4 -9
-12 0 -13 2 -15 44 -1 16 -8 32 -15 34 -8 3 -11 0 -8 -5 3 -5 -3 -10 -14 -10
-10 -1 -19 2 -19 8 0 5 -5 9 -11 9 -5 0 -7 -4 -4 -10 3 -5 2 -10 -3 -10 -6 0
-12 6 -15 13 -6 16 30 20 39 5 4 -6 9 -5 15 3 7 11 12 12 29 2 24 -15 33 -17
25 -4 -3 6 7 9 22 7 16 -1 34 2 42 8 11 8 13 8 7 -2 -10 -17 55 -6 66 11 5 8
8 6 8 -7 0 -13 4 -16 18 -11 34 15 97 12 110 -4 11 -15 12 -15 6 0 -4 12 0 16
18 14 13 -1 15 0 5 2 -13 3 -16 10 -11 26 6 21 6 21 -20 4 -14 -10 -26 -13
-26 -7 0 5 -5 10 -11 10 -6 0 -8 -7 -5 -18 5 -11 -2 -8 -20 9 -25 25 -26 58
-2 43 7 -5 9 -2 6 7 -4 10 3 14 20 16 22 1 23 -1 9 -8 -9 -6 -21 -18 -26 -28
-8 -15 -6 -18 18 -18 17 0 28 6 28 14 0 8 -7 11 -14 9 -8 -3 -11 -1 -8 5 4 5
16 7 27 4 14 -5 21 -1 25 13 4 17 9 19 28 12 13 -5 25 -6 28 -4 3 3 15 0 27
-6 15 -8 20 -8 16 -1 -7 11 4 15 39 11 l20 -2 -20 15 c-11 9 -21 11 -23 6 -2
-5 -11 -9 -20 -8 -11 0 -12 2 -4 6 6 2 9 10 6 15 -4 7 -2 8 4 4 7 -4 12 -2 12
3 0 6 -4 11 -9 11 -5 0 -8 12 -7 27 4 34 30 38 58 10 15 -16 19 -17 15 -5 -6
17 15 20 30 3 4 -4 2 -5 -6 0 -9 5 -12 4 -7 -3 4 -7 1 -12 -6 -12 -9 0 -9 -3
2 -10 10 -6 11 -10 3 -10 -7 0 -13 -5 -13 -11 0 -5 4 -7 10 -4 6 3 7 -1 3 -10
-4 -12 -8 -13 -13 -5 -4 7 -10 8 -13 3 -3 -5 -2 -15 2 -22 6 -9 10 -10 15 -2
4 6 11 9 15 7 4 -3 7 11 6 30 0 20 2 37 5 39 9 5 6 37 -4 53 -4 7 -11 10 -15
8 -3 -3 -7 11 -7 29 0 18 4 32 8 29 4 -2 5 -13 3 -24 -4 -22 10 -36 20 -20 4
6 10 8 14 6 4 -3 12 4 19 15 13 21 9 24 -17 10 -13 -8 -17 -5 -18 12 -2 15 0
18 6 8 6 -10 10 -10 16 -2 5 9 11 9 23 -1 14 -11 15 -10 8 7 -7 20 -7 20 12 0
20 -21 22 -32 9 -52 -4 -6 -4 -19 -1 -30 5 -16 5 -17 -6 -1 -10 17 -45 14 -35
-2 3 -5 0 -12 -6 -16 -8 -5 -9 -3 -4 6 5 9 4 11 -4 6 -6 -4 -9 -11 -7 -15 6
-9 48 -7 64 3 7 4 12 2 12 -4 0 -6 5 -8 11 -4 6 4 7 9 2 13 -10 7 -12 91 -2
91 3 0 6 7 6 15 0 8 -7 15 -14 15 -8 0 -11 -5 -7 -12 5 -7 3 -8 -6 -3 -10 6
-9 11 5 22 11 7 15 13 11 13 -5 0 -3 6 3 14 9 11 10 20 1 35 -6 12 -7 21 -2
21 5 0 6 17 2 38 -3 21 -3 47 0 58 4 10 5 23 3 27 -9 14 -9 66 -1 61 4 -3 5
11 3 31 -3 19 -1 35 4 35 5 0 8 -11 7 -25 -2 -14 3 -30 12 -37 12 -10 18 -8
32 9 10 12 20 19 24 16 3 -4 6 -1 6 5 0 7 -5 12 -10 12 -6 0 -9 3 -8 8 3 8 -5
12 -24 12 -6 0 -3 -7 8 -16 17 -14 17 -15 1 -10 -10 3 -23 6 -28 6 -5 0 -8 3
-8 7 3 20 -2 34 -11 28 -5 -3 -10 -2 -10 2 0 5 23 9 50 9 44 0 49 -2 44 -19
-4 -11 1 -24 13 -33 10 -9 12 -13 6 -9 -7 3 -13 2 -13 -3 0 -6 -15 -19 -32
-31 -18 -11 -28 -21 -21 -21 6 0 15 5 18 10 4 6 11 8 16 5 5 -4 9 -1 9 5 0 7
7 10 15 6 8 -3 15 0 15 7 0 9 2 9 8 0 5 -8 43 -13 107 -14 54 -2 94 -4 87 -7
-10 -3 -10 -7 -1 -18 15 -18 30 -18 23 0 -9 23 14 28 26 5 9 -16 9 -24 0 -33
-8 -8 -9 -6 -4 9 7 18 6 18 -9 7 -20 -17 -13 -37 13 -39 11 -1 18 2 16 6 -3 4
0 13 5 21 9 13 10 13 6 0 -2 -8 3 -21 12 -28 15 -11 14 -12 0 -6 -10 3 -20 1
-24 -5 -3 -7 3 -11 17 -12 53 -2 109 0 118 6 6 3 10 2 10 -3 0 -4 19 -6 43 -4
23 2 61 5 83 5 38 2 41 4 38 24 -3 14 1 23 8 23 10 0 10 2 -1 9 -9 6 -10 11
-2 15 6 4 9 12 6 17 -4 5 0 9 8 9 8 0 20 7 27 15 7 8 18 15 24 15 6 0 3 -5 -6
-11 -10 -5 -18 -15 -18 -21 0 -7 5 -7 13 -1 6 5 44 8 84 8 52 -1 70 2 63 10
-6 7 -5 16 3 25 9 10 9 11 0 6 -7 -4 -13 -3 -13 1 0 5 6 15 13 22 10 11 10 13
0 7 -7 -4 -13 -3 -13 3 0 18 35 30 73 25 30 -3 37 -1 37 13 0 15 2 16 10 3 6
-9 10 -10 10 -3 0 19 -20 26 -26 8 -4 -10 -10 -12 -18 -7 -13 11 -45 10 -64
-2 -6 -4 -12 -2 -12 3 0 11 12 15 40 12 10 -1 6 6 -10 19 -23 20 -39 57 -19
44 5 -3 7 -10 4 -15 -4 -5 -1 -9 4 -9 6 0 11 7 11 15 0 8 5 15 10 15 7 0 7 -6
1 -18 -9 -16 -6 -19 18 -19 17 0 28 6 28 14 0 8 -6 12 -12 9 -6 -2 -12 2 -12
9 0 10 5 11 19 4 12 -7 25 -6 39 2 13 6 19 7 15 1 -3 -6 0 -12 6 -15 7 -2 9
-8 5 -13 -4 -5 -12 -2 -16 5 -5 8 -11 9 -15 3 -8 -13 19 -23 39 -16 12 5 13
10 4 20 -6 8 -8 14 -4 14 4 0 2 7 -5 15 -10 13 -11 18 -1 28 10 9 11 8 5 -7
-5 -14 -4 -17 5 -12 6 4 10 4 9 -1 -3 -13 13 -53 22 -53 5 0 12 5 16 12 4 6 3
8 -4 4 -6 -3 -13 -2 -16 3 -3 5 4 11 17 15 12 3 24 1 25 -4 2 -6 8 -7 13 -4 6
3 5 12 -3 22 -10 12 -10 14 0 8 6 -4 12 -3 12 3 0 6 10 16 23 22 l22 11 -23
-21 c-24 -24 -22 -41 6 -38 16 1 18 13 18 124 1 91 -2 123 -11 119 -6 -2 -12
2 -12 9 0 8 7 11 16 7 14 -5 14 -4 1 13 -9 12 -10 16 -2 11 9 -5 12 1 10 24
-1 18 -7 29 -13 26 -7 -2 -12 2 -12 9 0 7 5 11 12 9 7 -3 11 19 11 71 1 54 -3
75 -11 71 -6 -2 -12 2 -12 9 0 7 6 11 12 9 9 -4 12 26 11 108 0 90 -3 116 -15
126 -14 11 -14 12 0 7 14 -5 16 8 16 110 0 85 -3 115 -12 111 -6 -2 -12 2 -12
9 0 7 5 11 12 9 7 -3 11 19 11 71 1 54 -3 75 -11 71 -6 -2 -12 2 -12 9 0 7 6
11 12 9 9 -4 12 26 11 108 0 90 -3 116 -15 126 -14 11 -14 12 0 7 14 -5 16 7
16 92 -1 109 -8 124 -62 117 -30 -4 -30 -3 -33 49 -4 102 -7 135 -13 141 -3 3
-87 7 -187 7 -122 1 -180 5 -175 12 4 6 1 7 -8 1 -21 -13 -130 -13 -121 0 12
16 8 41 -5 39 -6 -1 -13 4 -16 11 -4 10 0 12 14 9 10 -3 19 -10 19 -17 0 -6 5
-4 10 4 6 10 10 11 10 3 0 -7 5 -13 11 -13 8 0 8 5 -1 15 -7 8 -9 15 -5 15 4
0 14 -8 22 -17 10 -14 13 -14 11 -3 -2 8 1 17 6 20 5 3 10 -5 11 -17 1 -12 -2
-20 -6 -17 -4 2 -11 -1 -15 -7 -5 -8 -3 -9 6 -4 9 6 11 4 5 -5 -6 -9 -4 -11 5
-5 9 6 11 4 5 -6 -4 -8 1 -6 11 5 14 13 15 20 7 23 -7 3 -13 9 -13 14 0 6 4 8
9 5 5 -4 7 2 5 12 -4 14 -17 17 -77 18 -41 0 -75 -4 -79 -10 -6 -8 -8 -8 -8 0
0 11 -57 13 -366 17 -77 1 -110 5 -107 13 2 6 -3 11 -12 11 -9 0 -14 -5 -12
-12 3 -6 -5 -11 -18 -11 -15 0 -21 5 -18 13 3 7 -1 13 -8 13 -9 1 -8 4 4 11 9
5 17 15 17 20 0 6 -4 8 -8 5 -5 -3 -9 0 -9 7 0 8 14 13 33 13 20 0 30 -4 26
-11 -3 -5 2 -4 11 4 11 9 17 10 17 2 0 -6 -6 -11 -12 -11 -10 0 -9 -3 1 -9 9
-6 10 -10 2 -12 -7 -3 -9 -12 -6 -22 5 -13 11 -14 25 -7 13 7 20 6 22 -2 3 -7
7 -5 11 6 4 10 3 15 -3 11 -6 -3 -10 1 -10 10 0 9 4 14 9 11 5 -3 11 1 14 9 4
9 1 12 -9 8 -9 -3 -14 0 -12 8 3 12 -14 14 -169 18 l-53 1 0 49 c0 28 -5 53
-12 57 -8 5 -9 2 -5 -9 5 -14 3 -15 -13 -4 -16 9 -24 9 -41 -1 -12 -8 -18 -9
-14 -3 3 6 1 11 -4 11 -6 0 -11 22 -11 51 l0 50 -200 -3 c-151 -2 -204 -6
-217 -17z m77 3 c0 -1 -12 -10 -27 -19 -16 -10 -25 -14 -21 -10 4 5 4 13 -2
19 -6 9 0 12 21 11 16 0 29 -1 29 -1z m114 -2 c3 -5 -1 -9 -9 -9 -8 0 -12 4
-9 9 3 4 7 8 9 8 2 0 6 -4 9 -8z m-24 -36 c0 -2 -7 -7 -16 -10 -8 -3 -12 -2
-9 4 6 10 25 14 25 6z m51 -19 c-10 -9 -11 -8 -5 6 3 10 9 15 12 12 3 -3 0
-11 -7 -18z m-706 -56 c-1 -8 -8 -17 -15 -19 -9 -3 -11 1 -6 14 4 13 1 12 -13
-6 -18 -22 -21 -23 -26 -7 -4 9 -10 15 -14 12 -4 -2 -8 1 -8 8 0 8 16 13 42
13 32 0 42 -4 40 -15z m49 -20 c-5 -6 -34 20 -34 30 0 5 8 1 18 -8 10 -10 17
-20 16 -22z m47 7 c-10 -11 -11 -9 -5 6 6 15 4 17 -6 11 -9 -6 -11 -4 -5 4 5
9 10 10 18 2 8 -8 7 -14 -2 -23z m-21 -18 c0 -5 -5 -10 -11 -10 -5 0 -7 5 -4
10 3 6 8 10 11 10 2 0 4 -4 4 -10z m920 6 c0 -3 -4 -8 -10 -11 -5 -3 -10 -1
-10 4 0 6 5 11 10 11 6 0 10 -2 10 -4z m-908 -38 c-8 -8 -9 -4 -5 13 4 13 8
18 11 10 2 -7 -1 -18 -6 -23z m1133 -35 c-2 -10 -4 -24 -4 -30 -1 -7 -7 -13
-15 -13 -12 0 -12 4 0 30 17 34 24 38 19 13z m-1898 -18 c0 -8 -4 -12 -9 -9
-5 3 -6 10 -3 15 9 13 12 11 12 -6z m153 -25 c-24 -15 -36 -11 -14 4 10 8 21
12 24 10 2 -3 -2 -9 -10 -14z m2260 -44 c0 -3 -4 -8 -10 -11 -5 -3 -10 -1 -10
4 0 6 5 11 10 11 6 0 10 -2 10 -4z m-190 -22 c0 -8 -19 -13 -24 -6 -3 5 1 9 9
9 8 0 15 -2 15 -3z m127 -36 c2 -12 1 -19 -3 -16 -3 3 -6 12 -8 20 -1 7 -5 20
-10 28 -7 12 -6 13 4 3 8 -7 15 -23 17 -35z m-2481 -162 c1 -7 -4 -13 -12 -13
-9 0 -11 4 -4 12 5 7 8 15 5 18 -3 4 -2 5 2 2 4 -3 8 -11 9 -19z m3079 -85
c-3 -2 3 -10 13 -18 16 -13 15 -13 -3 -4 -43 22 -51 30 -28 28 12 0 20 -3 18
-6z m-3135 -15 c0 -3 -4 -8 -10 -11 -5 -3 -10 -1 -10 4 0 6 5 11 10 11 6 0 10
-2 10 -4z m3116 -8 c4 -7 3 -8 -4 -4 -7 4 -12 3 -12 -2 0 -6 -8 -13 -17 -16
-15 -6 -15 -4 2 14 21 23 22 24 31 8z m33 -31 c0 -9 -2 -8 -6 1 -2 6 -10 9
-15 6 -7 -4 -8 -2 -4 5 9 13 26 5 25 -12z m-6 -37 c3 -11 2 -18 -3 -15 -4 3
-10 14 -13 25 -3 11 -2 18 3 15 4 -3 10 -14 13 -25z m-28 10 c3 -6 -1 -7 -9
-4 -18 7 -21 14 -7 14 6 0 13 -4 16 -10z m-15 -39 c0 -6 -4 -12 -8 -15 -5 -3
-9 1 -9 9 0 8 4 15 9 15 4 0 8 -4 8 -9z m36 -36 c3 -19 -10 -19 -26 0 -11 13
-10 14 5 9 14 -6 16 -4 10 7 -5 8 -4 11 0 6 5 -4 10 -14 11 -22z m-20 -47 c5
-7 3 -8 -6 -3 -10 6 -12 4 -6 -11 5 -14 4 -16 -5 -7 -6 6 -8 16 -5 22 9 14 13
14 22 -1z m24 -38 c0 -5 -4 -10 -10 -10 -5 0 -10 5 -10 10 0 6 5 10 10 10 6 0
10 -4 10 -10z m-23 -44 c0 -8 -6 -12 -15 -8 -10 3 -13 1 -8 -6 4 -7 2 -12 -3
-12 -23 0 -4 29 25 40 0 0 1 -6 1 -14z m25 -44 c3 -11 0 -19 -7 -19 -8 0 -11
7 -7 15 4 11 1 13 -8 7 -9 -5 -11 -4 -6 3 11 17 23 15 28 -6z m-42 -31 c0 -6
-4 -12 -8 -15 -5 -3 -9 1 -9 9 0 8 4 15 9 15 4 0 8 -4 8 -9z m36 -36 c3 -19
-10 -19 -26 0 -11 13 -10 14 5 9 14 -6 16 -4 10 7 -5 8 -4 11 0 6 5 -4 10 -14
11 -22z m-19 -50 c5 -4 2 -5 -6 0 -11 6 -13 4 -7 -10 5 -15 4 -16 -9 -5 -8 7
-15 16 -15 20 0 10 27 7 37 -5z m23 -35 c0 -5 -4 -10 -10 -10 -5 0 -10 5 -10
10 0 6 5 10 10 10 6 0 10 -4 10 -10z m-46 -32 c-5 -7 -2 -9 8 -6 8 4 15 1 15
-7 0 -7 -8 -10 -19 -7 -19 5 -23 14 -11 25 10 11 15 8 7 -5z m-2949 -48 c-3
-5 -10 -10 -16 -10 -5 0 -9 5 -9 10 0 6 7 10 16 10 8 0 12 -4 9 -10z m2995 0
c0 -5 -4 -10 -10 -10 -5 0 -10 5 -10 10 0 6 5 10 10 10 6 0 10 -4 10 -10z
m-23 -45 c5 -4 2 -5 -6 0 -11 6 -13 4 -7 -10 5 -15 4 -16 -9 -5 -8 7 -15 16
-15 20 0 10 27 7 37 -5z m23 -35 c0 -5 -4 -10 -10 -10 -5 0 -10 5 -10 10 0 6
5 10 10 10 6 0 10 -4 10 -10z m-43 -27 c-4 -3 1 -12 11 -19 15 -12 15 -12 -5
-7 -13 3 -23 9 -23 12 0 9 11 21 18 21 3 0 2 -3 -1 -7z m46 -65 c5 -21 5 -21
-7 -6 -7 10 -17 14 -21 10 -5 -4 -5 -1 -1 6 11 19 23 14 29 -10z m-43 -27 c0
-6 -4 -12 -8 -15 -5 -3 -9 1 -9 9 0 8 4 15 9 15 4 0 8 -4 8 -9z m36 -36 c3
-19 -10 -19 -26 0 -11 13 -10 14 5 9 14 -6 16 -4 10 7 -5 8 -4 11 0 6 5 -4 10
-14 11 -22z m-2906 11 c0 -2 -7 -7 -16 -10 -8 -3 -12 -2 -9 4 6 10 25 14 25 6z
m34 -18 c-3 -4 -9 -8 -15 -8 -5 0 -9 4 -9 8 0 5 7 9 15 9 8 0 12 -4 9 -9z
m2852 -40 c5 -7 3 -8 -6 -3 -10 6 -12 4 -6 -11 5 -14 4 -16 -5 -7 -6 6 -8 16
-5 22 9 14 13 14 22 -1z m24 -38 c0 -5 -4 -10 -10 -10 -5 0 -10 5 -10 10 0 6
5 10 10 10 6 0 10 -4 10 -10z m-23 -44 c0 -8 -6 -12 -15 -8 -10 3 -13 1 -8 -6
4 -7 2 -12 -3 -12 -23 0 -4 29 25 40 0 0 1 -6 1 -14z m25 -44 c3 -11 0 -19 -7
-19 -8 0 -11 7 -7 15 4 11 1 13 -8 7 -9 -5 -11 -4 -6 3 11 17 23 15 28 -6z
m-42 -31 c0 -6 -4 -12 -8 -15 -5 -3 -9 1 -9 9 0 8 4 15 9 15 4 0 8 -4 8 -9z
m36 -36 c3 -19 -10 -19 -26 0 -11 13 -10 14 5 9 14 -6 16 -4 10 7 -5 8 -4 11
0 6 5 -4 10 -14 11 -22z m-19 -50 c5 -4 2 -5 -6 0 -11 6 -13 4 -7 -10 5 -15 4
-16 -9 -5 -8 7 -15 16 -15 20 0 10 27 7 37 -5z m23 -35 c0 -5 -4 -10 -10 -10
-5 0 -10 5 -10 10 0 6 5 10 10 10 6 0 10 -4 10 -10z m-46 -32 c-5 -7 -2 -9 8
-6 8 4 15 1 15 -7 0 -7 -8 -10 -19 -7 -19 5 -23 14 -11 25 10 11 15 8 7 -5z
m46 -48 c0 -5 -4 -10 -10 -10 -5 0 -10 5 -10 10 0 6 5 10 10 10 6 0 10 -4 10
-10z m-23 -45 c5 -4 2 -5 -6 0 -11 6 -13 4 -7 -10 5 -15 4 -16 -9 -5 -8 7 -15
16 -15 20 0 10 27 7 37 -5z m-2794 -40 c-3 -9 -8 -14 -10 -11 -3 3 -2 9 2 15
9 16 15 13 8 -4z m2817 5 c0 -5 -4 -10 -10 -10 -5 0 -10 5 -10 10 0 6 5 10 10
10 6 0 10 -4 10 -10z m-2778 -14 c7 4 8 2 4 -5 -9 -13 -26 -5 -25 12 0 9 2 8
6 -1 2 -6 10 -9 15 -6z m-67 -6 c-6 -10 7 -14 32 -11 6 1 14 -3 18 -9 3 -5 0
-7 -8 -4 -8 3 -18 1 -22 -5 -3 -6 0 -11 7 -11 8 0 23 -7 34 -15 17 -13 15 -13
-16 0 -19 7 -34 19 -32 25 1 5 -5 10 -13 10 -16 0 -20 12 -8 23 10 10 15 8 8
-3z m2808 -7 c-4 -10 -2 -14 4 -10 5 3 10 0 10 -8 0 -10 -4 -12 -12 -5 -7 5
-15 7 -18 3 -4 -3 -7 -2 -7 3 0 9 20 34 27 34 1 0 -1 -7 -4 -17z m-2772 -63
c9 0 23 -8 30 -17 7 -10 9 -15 5 -11 -5 4 -15 3 -23 -4 -10 -8 -17 -8 -26 1
-9 10 -8 11 4 6 10 -4 20 -2 24 4 3 6 -2 11 -12 11 -11 0 -25 6 -32 13 -11 10
-12 7 -7 -13 6 -21 5 -22 -4 -7 -14 21 -3 44 13 28 6 -6 19 -11 28 -11z m2806
13 c-4 -3 -2 -11 3 -18 7 -8 5 -12 -5 -12 -8 0 -11 5 -8 10 4 7 -1 8 -12 3
-15 -5 -16 -4 -5 9 7 8 17 15 23 15 6 0 7 -3 4 -7z m-37 -42 c0 -6 -4 -12 -8
-15 -5 -3 -9 1 -9 9 0 8 4 15 9 15 4 0 8 -4 8 -9z m-2781 -25 c9 -11 9 -16 0
-22 -8 -4 -9 -3 -5 4 4 7 2 12 -3 12 -6 0 -11 5 -11 10 0 14 5 13 19 -4z m38
2 c-2 -7 0 -21 5 -30 5 -10 6 -18 4 -18 -10 0 -27 41 -21 50 9 14 17 12 12 -2z
m2785 -10 c-2 -10 -6 -18 -7 -18 -1 0 -5 8 -7 18 -3 11 0 19 7 19 7 0 10 -8 7
-19z m-2842 -23 c0 -5 -5 -3 -10 5 -5 8 -10 20 -10 25 0 6 5 3 10 -5 5 -8 10
-19 10 -25z m2818 4 c-3 -8 -7 -3 -11 10 -4 17 -3 21 5 13 5 -5 8 -16 6 -23z
m-2782 -8 c-4 -5 0 -11 6 -14 7 -2 1 -4 -15 -4 -25 0 -26 1 -10 13 21 16 26
17 19 5z m2792 -29 c2 -6 11 -8 20 -5 14 5 15 4 4 -8 -11 -12 -16 -11 -28 6
-8 11 -17 19 -20 17 -2 -2 -10 -1 -17 2 -6 2 -1 3 12 2 14 -2 27 -8 29 -14z
m-29 -17 c25 0 21 -19 -8 -42 -20 -16 -28 -18 -28 -8 0 8 3 12 7 10 4 -3 15 4
25 15 20 22 8 28 -15 8 -8 -7 -12 -9 -8 -4 4 5 3 18 -3 30 -9 18 -8 19 3 6 7
-8 19 -15 27 -15z m-100 -22 c2 -1 -5 -1 -16 0 -11 0 -20 7 -20 14 0 10 4 10
16 1 9 -7 18 -13 20 -15z m57 12 c-1 -8 -5 -17 -8 -21 -5 -4 -4 16 1 34 3 9 9
-1 7 -13z m-2820 -41 c1 -9 0 -13 -4 -10 -3 4 -7 14 -8 22 -1 9 0 13 4 10 3
-4 7 -14 8 -22z m2616 -41 c-1 -4 7 -17 16 -28 17 -20 17 -20 -4 -2 -11 9 -21
24 -21 32 0 8 2 13 5 11 2 -2 4 -8 4 -13z m-912 -23 c0 -5 -5 -10 -11 -10 -5
0 -7 5 -4 10 3 6 8 10 11 10 2 0 4 -4 4 -10z m915 -68 c-1 -20 -5 -35 -11 -32
-5 3 -8 12 -6 20 3 13 2 13 -8 0 -7 -11 -5 -19 11 -32 17 -15 18 -18 5 -18 -9
0 -16 -6 -16 -12 0 -9 -4 -8 -10 2 -9 13 -10 13 -10 0 0 -13 -1 -13 -10 0 -12
18 -14 40 -2 25 4 -5 14 -11 22 -13 13 -2 12 0 -1 10 -21 17 -23 29 -7 40 9 7
7 8 -8 5 -12 -2 -28 -1 -35 4 -11 7 -11 9 -1 10 6 1 18 2 25 3 6 1 17 0 22 -3
35 -19 44 8 15 46 -14 17 -14 17 6 0 15 -12 21 -28 19 -55z m-45 54 c0 -2 -8
-10 -17 -17 -16 -13 -17 -12 -4 4 13 16 21 21 21 13z m-664 -67 c5 1 9 -7 9
-16 0 -10 5 -22 10 -26 6 -5 4 -7 -5 -4 -9 2 -14 13 -12 26 2 13 -1 20 -9 19
-6 -2 -14 4 -16 12 -4 12 -3 12 5 2 5 -8 13 -13 18 -13z m574 -34 c-7 -9 -21
-20 -30 -25 -22 -12 -24 18 -3 42 8 9 12 23 8 30 -4 7 3 3 15 -9 20 -19 21
-24 10 -38z m30 40 c6 -8 15 -14 18 -13 26 3 34 -3 23 -16 -6 -7 -9 -21 -5
-29 4 -12 0 -15 -15 -14 -12 1 -21 5 -21 10 0 5 6 7 13 4 8 -3 13 3 13 14 0
11 -3 19 -7 19 -3 0 -16 9 -29 20 -13 11 -18 20 -13 20 6 0 16 -7 23 -15z
m-792 -30 c-3 -3 -9 2 -12 12 -6 14 -5 15 5 6 7 -7 10 -15 7 -18z m142 5 c0
-5 -7 -7 -15 -4 -8 4 -15 8 -15 10 0 2 7 4 15 4 8 0 15 -4 15 -10z m655 -10
c3 -5 1 -10 -4 -10 -6 0 -11 5 -11 10 0 6 2 10 4 10 3 0 8 -4 11 -10z m-632
-6 c-7 -3 -9 -13 -6 -22 4 -14 3 -14 -5 -2 -12 16 -7 30 11 29 9 0 9 -2 0 -5z
m-98 -13 c7 -12 -12 -24 -25 -16 -11 7 -4 25 10 25 5 0 11 -4 15 -9z m130 -19
c-3 -3 -11 0 -18 7 -9 10 -8 11 6 5 10 -3 15 -9 12 -12z m500 8 c3 -5 1 -10
-4 -10 -6 0 -11 5 -11 10 0 6 2 10 4 10 3 0 8 -4 11 -10z m-58 -25 c-7 -18 9
-30 19 -14 5 8 3 9 -7 4 -8 -5 -11 -4 -6 1 11 11 56 13 63 2 3 -4 -2 -11 -11
-14 -13 -6 -14 -8 -3 -15 11 -7 11 -9 -1 -9 -10 0 -11 -3 -2 -14 7 -8 8 -17 3
-19 -4 -3 -13 3 -20 14 -7 10 -9 19 -4 19 4 0 8 10 9 23 2 21 1 21 -12 -3 -7
-14 -16 -24 -19 -22 -19 8 -27 1 -16 -13 7 -9 19 -14 27 -11 8 4 11 1 8 -5 -4
-5 -12 -8 -18 -6 -7 2 -24 0 -40 -4 -16 -5 -25 -4 -22 2 4 5 13 9 21 9 12 0
12 4 4 20 -6 11 -7 20 -3 20 4 0 1 5 -7 11 -13 9 -13 10 0 6 8 -2 14 -10 12
-16 -1 -7 2 -10 8 -6 7 4 7 12 0 24 -9 19 -4 31 13 31 5 0 7 -7 4 -15z m-217
-10 c0 -12 -19 -12 -23 0 -4 9 -1 12 9 8 7 -3 14 -7 14 -8z m153 -11 c-15 -13
-30 -21 -33 -17 -3 3 1 8 8 10 6 3 12 9 12 14 0 6 -8 5 -20 -1 -12 -6 -20 -7
-20 -1 0 10 17 15 57 17 24 2 24 2 -4 -22z m-2539 0 c3 -8 2 -12 -4 -9 -6 3
-10 10 -10 16 0 14 7 11 14 -7z m2525 -49 c11 -6 13 -4 8 9 -4 9 -3 15 2 11 5
-3 11 0 13 7 3 7 7 4 12 -7 4 -11 4 -16 0 -12 -4 4 -13 -1 -19 -10 -11 -15
-15 -15 -43 8 -17 13 -31 28 -31 33 -1 5 9 0 22 -11 12 -11 28 -24 36 -28z
m96 15 c3 -5 1 -10 -4 -10 -6 0 -11 5 -11 10 0 6 2 10 4 10 3 0 8 -4 11 -10z
m-198 -15 c0 -8 -4 -12 -9 -9 -5 3 -6 10 -3 15 9 13 12 11 12 -6z m-477 -5 c0
-5 -5 -10 -11 -10 -5 0 -7 5 -4 10 3 6 8 10 11 10 2 0 4 -4 4 -10z m-1883 -35
c0 -8 -4 -15 -9 -15 -10 0 -11 14 -1 23 9 10 10 9 10 -8z m-37 -47 c0 -19 -16
-5 -17 14 -2 18 0 20 7 8 5 -8 10 -18 10 -22z m1871 -11 c-10 -9 -11 -8 -5 6
3 10 9 15 12 12 3 -3 0 -11 -7 -18z m16 -33 c-3 -3 -12 -4 -19 -1 -8 3 -5 6 6
6 11 1 17 -2 13 -5z m53 -15 c0 -5 -4 -8 -9 -4 -5 3 -12 1 -16 -5 -3 -5 -11
-10 -18 -10 -6 0 -2 7 9 15 23 17 34 19 34 4z m-35 -39 c3 -6 -1 -7 -9 -4 -18
7 -21 14 -7 14 6 0 13 -4 16 -10z m-114 -73 c-10 -9 -11 -8 -5 6 3 10 9 15 12
12 3 -3 0 -11 -7 -18z m-1714 -12 c-4 -8 -2 -17 3 -20 6 -4 10 -12 9 -18 0 -9
-2 -8 -6 1 -2 6 -8 10 -13 7 -5 -3 -7 3 -5 12 2 10 4 21 4 26 1 4 4 7 7 7 3 0
4 -7 1 -15z m1737 -33 c3 -5 -1 -9 -9 -9 -8 0 -12 4 -9 9 3 4 7 8 9 8 2 0 6
-4 9 -8z m100 -8 c3 -8 2 -12 -4 -9 -6 3 -10 10 -10 16 0 14 7 11 14 -7z
m-234 -18 c0 -2 -7 -9 -15 -16 -13 -11 -14 -10 -9 4 5 14 24 23 24 12z m-23
-58 c-3 -8 -6 -5 -6 6 -1 11 2 17 5 13 3 -3 4 -12 1 -19z m26 -8 c3 -11 1 -18
-4 -14 -5 3 -9 12 -9 20 0 20 7 17 13 -6z m-48 -30 c3 -5 1 -10 -4 -10 -6 0
-11 5 -11 10 0 6 2 10 4 10 3 0 8 -4 11 -10z m-180 -10 c-3 -5 -1 -10 6 -10 7
0 10 -3 6 -6 -9 -9 -28 6 -22 17 4 5 8 9 11 9 3 0 2 -4 -1 -10z m69 -6 c3 -8
2 -12 -4 -9 -6 3 -10 10 -10 16 0 14 7 11 14 -7z m-124 -24 c0 -5 -2 -10 -4
-10 -3 0 -8 5 -11 10 -3 6 -1 10 4 10 6 0 11 -4 11 -10z m100 0 c0 -5 -4 -10
-10 -10 -5 0 -10 5 -10 10 0 6 5 10 10 10 6 0 10 -4 10 -10z m-31 -28 c7 -14
6 -19 -4 -19 -7 0 -11 7 -7 15 4 11 1 13 -8 7 -9 -5 -11 -4 -6 3 10 16 14 15
25 -6z m-639 -42 c8 -5 11 -10 5 -10 -5 0 -17 5 -25 10 -8 5 -10 10 -5 10 6 0
17 -5 25 -10z m207 -5 c0 -8 -4 -12 -9 -9 -5 3 -6 10 -3 15 9 13 12 11 12 -6z
m123 5 c0 -5 -5 -10 -11 -10 -5 0 -7 5 -4 10 3 6 8 10 11 10 2 0 4 -4 4 -10z
m76 -23 c-3 -19 -25 -54 -26 -40 0 6 4 14 9 17 11 7 9 25 -4 46 -7 13 -6 13 7
2 9 -7 15 -18 14 -25z m-418 -7 c22 -20 28 -30 18 -30 -9 0 -16 -4 -16 -10 0
-5 -5 -10 -11 -10 -8 0 -7 5 2 16 11 14 10 20 -14 40 -16 13 -24 24 -20 24 5
0 23 -13 41 -30z m59 15 c0 -8 -4 -12 -9 -9 -5 3 -6 10 -3 15 9 13 12 11 12
-6z m83 11 c0 -3 -4 -8 -10 -11 -5 -3 -10 -1 -10 4 0 6 5 11 10 11 6 0 10 -2
10 -4z m144 -8 c-3 -4 -9 -8 -15 -8 -5 0 -9 4 -9 8 0 5 7 9 15 9 8 0 12 -4 9
-9z m106 -2 c0 -2 -7 -7 -16 -10 -8 -3 -12 -2 -9 4 6 10 25 14 25 6z m-507
-20 c11 1 16 0 13 -3 -3 -4 1 -14 9 -23 13 -14 11 -16 -20 -16 -18 0 -32 3
-29 7 2 4 -1 9 -8 11 -6 2 -12 12 -14 21 -2 13 2 15 14 8 10 -5 25 -7 35 -5z
m152 4 c3 -5 2 -10 -4 -10 -5 0 -13 5 -16 10 -3 6 -2 10 4 10 5 0 13 -4 16
-10z m60 0 c3 -6 -1 -7 -9 -4 -18 7 -21 14 -7 14 6 0 13 -4 16 -10z m85 0 c0
-5 -4 -10 -10 -10 -5 0 -10 5 -10 10 0 6 5 10 10 10 6 0 10 -4 10 -10z m417
-33 c0 -11 -27 -15 -56 -8 -2 1 3 9 12 19 10 10 14 23 10 28 -5 5 1 1 13 -9
11 -9 21 -23 21 -30z m-630 -2 c-23 -22 -33 -18 -12 5 10 11 20 18 23 16 2 -3
-3 -12 -11 -21z m403 15 c8 -5 11 -10 5 -10 -5 0 -17 5 -25 10 -8 5 -10 10 -5
10 6 0 17 -5 25 -10z"/>
<path d="M837 2963 c3 -7 6 -13 8 -13 2 0 5 6 8 13 3 8 -1 14 -8 14 -7 0 -11
-6 -8 -14z"/>
<path d="M2720 755 c-17 -21 -5 -31 15 -12 8 9 15 18 15 21 0 11 -18 6 -30 -9z"/>
<path d="M725 38 c28 -17 51 -20 36 -5 -6 6 -21 12 -33 14 -22 3 -22 2 -3 -9z"/>
<path d="M1431 36 c-10 -11 -9 -14 1 -12 14 2 23 15 15 22 -2 2 -10 -2 -16
-10z"/>
<path d="M1307 3083 c-3 -5 6 -9 20 -10 19 -1 22 1 12 8 -17 11 -26 11 -32 2z"/>
<path d="M1459 3062 c-1 -4 -2 -14 -3 -22 0 -8 -6 -15 -13 -15 -6 0 -14 -2
-17 -5 -3 -3 10 -6 27 -6 27 0 33 5 35 22 1 19 -26 44 -29 26z m15 -32 c-6 -6
-10 -3 -10 10 0 13 4 16 10 10 7 -7 7 -13 0 -20z"/>
<path d="M1309 3043 c-13 -16 -12 -17 4 -4 9 7 17 15 17 17 0 8 -8 3 -21 -13z"/>
<path d="M1348 3053 c6 -2 18 -2 25 0 6 3 1 5 -13 5 -14 0 -19 -2 -12 -5z"/>
<path d="M1357 3029 c7 -7 15 -10 18 -7 3 3 -2 9 -12 12 -14 6 -15 5 -6 -5z"/>
<path d="M750 2990 c0 -5 5 -10 11 -10 5 0 7 5 4 10 -3 6 -8 10 -11 10 -2 0
-4 -4 -4 -10z"/>
<path d="M695 2960 c-3 -5 -1 -10 4 -10 6 0 11 5 11 10 0 6 -2 10 -4 10 -3 0
-8 -4 -11 -10z"/>
<path d="M759 2953 c-13 -16 -12 -17 4 -4 9 7 17 15 17 17 0 8 -8 3 -21 -13z"/>
<path d="M1935 2960 c3 -5 8 -10 11 -10 2 0 4 5 4 10 0 6 -5 10 -11 10 -5 0
-7 -4 -4 -10z"/>
<path d="M880 2931 c-8 -6 -17 -8 -21 -5 -4 2 -10 1 -13 -4 -2 -4 6 -8 19 -8
14 0 27 6 29 13 6 15 5 16 -14 4z"/>
<path d="M730 2926 c0 -2 7 -7 16 -10 8 -3 12 -2 9 4 -6 10 -25 14 -25 6z"/>
<path d="M2152 2889 c10 -5 21 -17 26 -25 8 -14 10 -14 22 1 11 13 10 15 -2
10 -8 -3 -21 1 -28 10 -7 8 -18 15 -24 15 -6 0 -3 -5 6 -11z"/>
<path d="M2026 2869 c3 -6 1 -15 -5 -22 -5 -7 -6 -19 -2 -26 6 -10 10 -9 15 4
3 9 11 13 17 9 8 -4 9 -3 5 5 -4 6 -12 8 -18 5 -7 -4 -8 -2 -4 4 4 6 14 8 24
5 14 -5 15 -3 5 7 -15 16 -46 23 -37 9z"/>
<path d="M234 2837 c0 -13 5 -24 12 -24 14 0 12 23 -2 37 -7 7 -10 2 -10 -13z"/>
<path d="M2150 2850 c0 -5 5 -10 10 -10 6 0 10 5 10 10 0 6 -4 10 -10 10 -5 0
-10 -4 -10 -10z"/>
<path d="M100 2841 c0 -6 4 -13 10 -16 6 -3 7 1 4 9 -7 18 -14 21 -14 7z"/>
<path d="M136 2831 c-4 -5 -1 -13 5 -17 8 -4 9 -3 5 4 -4 7 -3 12 3 12 5 0 12
-5 14 -10 3 -6 4 -5 3 2 -3 16 -23 22 -30 9z"/>
<path d="M2187 2825 c3 -8 9 -12 14 -9 12 7 11 11 -5 17 -10 4 -13 1 -9 -8z"/>
<path d="M276 2822 c-3 -5 1 -9 9 -9 8 0 12 4 9 9 -3 4 -7 8 -9 8 -2 0 -6 -4
-9 -8z"/>
<path d="M2150 2820 c0 -5 5 -10 10 -10 6 0 10 5 10 10 0 6 -4 10 -10 10 -5 0
-10 -4 -10 -10z"/>
<path d="M2749 2757 c6 -8 9 -16 6 -19 -3 -2 2 -5 10 -5 13 0 13 3 -2 19 -19
21 -31 25 -14 5z"/>
<path d="M2619 2745 c0 0 -2 -7 -4 -16 -2 -12 4 -16 25 -15 20 0 26 4 19 12
-5 6 -7 13 -4 15 3 3 -30 7 -36 4z"/>
<path d="M3116 2557 c2 -54 1 -52 19 -37 12 10 15 10 15 -1 0 -8 6 -5 15 7 11
13 13 14 9 3 -3 -9 1 -19 8 -22 11 -4 14 6 13 41 l-1 46 -40 3 -40 2 2 -42z
m70 7 c0 -13 -2 -21 -5 -19 -2 3 -10 0 -18 -6 -7 -6 -13 -8 -13 -4 0 4 -6 3
-13 -4 -11 -8 -13 -4 -11 22 1 17 3 32 3 33 1 0 14 0 29 0 22 0 28 -4 28 -22z"/>
<path d="M3134 2559 c0 -17 12 -19 34 -6 16 11 6 26 -16 24 -10 0 -18 -9 -18
-18z m36 7 c0 -3 -4 -8 -10 -11 -5 -3 -10 -1 -10 4 0 6 5 11 10 11 6 0 10 -2
10 -4z"/>
<path d="M52 2487 c-5 -6 -8 -21 -6 -32 1 -10 -1 -24 -6 -30 -5 -6 -5 -17 0
-25 9 -13 10 -13 10 0 0 9 3 11 8 5 22 -30 40 9 19 42 -4 6 -4 18 -1 26 7 19
-11 30 -24 14z m24 -61 c1 -9 -6 -14 -18 -13 -17 1 -17 3 -4 13 10 7 12 15 6
22 -7 9 -7 9 2 2 6 -5 13 -16 14 -24z"/>
<path d="M49 2364 c-14 -17 -21 -67 -8 -59 4 3 6 13 4 23 -1 9 4 25 13 35 8 9
13 17 10 17 -3 0 -12 -7 -19 -16z"/>
<path d="M146 2078 c3 -5 10 -6 15 -3 13 9 11 12 -6 12 -8 0 -12 -4 -9 -9z"/>
<path d="M274 1582 c5 -8 3 -13 -5 -11 -26 3 -36 -1 -36 -16 0 -16 1 -16 33
-20 16 -2 20 3 20 21 -1 13 -6 27 -10 31 -5 4 -6 2 -2 -5z m-2 -26 c7 4 8 2 4
-5 -9 -13 -26 -5 -25 12 0 9 2 8 6 -1 2 -6 10 -9 15 -6z"/>
<path d="M229 1463 c-13 -16 -12 -17 4 -4 9 7 17 15 17 17 0 8 -8 3 -21 -13z"/>
<path d="M230 1436 c0 -2 8 -10 18 -17 15 -13 16 -12 3 4 -13 16 -21 21 -21
13z"/>
<path d="M2950 851 c0 -15 32 -22 46 -10 18 15 45 -6 37 -28 -5 -12 -2 -12 15
3 12 9 18 22 15 27 -4 6 0 8 10 4 9 -3 19 -2 21 2 3 5 -5 8 -17 7 -12 -1 -21
-7 -19 -14 3 -17 -8 -15 -30 5 -16 14 -23 15 -39 5 -11 -7 -19 -8 -19 -2 0 5
-4 10 -10 10 -5 0 -10 -4 -10 -9z"/>
<path d="M3070 816 l-25 -14 27 1 c14 1 24 5 22 9 -2 3 2 9 8 11 7 3 9 6 3 6
-5 0 -21 -6 -35 -13z"/>
<path d="M3150 819 c0 -5 5 -7 10 -4 6 3 10 8 10 11 0 2 -4 4 -10 4 -5 0 -10
-5 -10 -11z"/>
<path d="M3 772 c1 -21 7 -27 24 -28 13 -1 21 2 18 6 -3 5 -1 11 4 15 17 10 2
31 -23 33 -20 1 -23 -3 -23 -26z m35 9 c11 -7 10 -9 -3 -14 -9 -4 -14 -3 -10
2 3 5 -1 12 -7 14 -7 3 -8 6 -3 6 6 0 16 -3 23 -8z"/>
<path d="M30 720 c0 -5 5 -10 10 -10 6 0 10 5 10 10 0 6 -4 10 -10 10 -5 0
-10 -4 -10 -10z"/>
<path d="M2010 680 c0 -5 5 -10 10 -10 6 0 10 5 10 10 0 6 -4 10 -10 10 -5 0
-10 -4 -10 -10z"/>
<path d="M2075 669 c-4 -6 -5 -12 -2 -15 2 -3 7 2 10 11 7 17 1 20 -8 4z"/>
<path d="M2298 674 c-4 -4 0 -13 10 -20 14 -10 15 -15 5 -25 -20 -20 -16 -24
22 -26 19 -1 35 3 35 8 0 5 -3 8 -7 8 -20 -3 -34 2 -29 10 8 12 -27 54 -36 45z"/>
<path d="M2271 653 c7 -12 15 -20 18 -17 3 2 -3 12 -13 22 -17 16 -18 16 -5
-5z"/>
<path d="M2050 640 c0 -5 5 -10 11 -10 5 0 7 5 4 10 -3 6 -8 10 -11 10 -2 0
-4 -4 -4 -10z"/>
<path d="M2033 615 c0 -7 6 -11 14 -8 7 3 13 6 13 8 0 2 -6 5 -13 8 -8 3 -14
-1 -14 -8z"/>
<path d="M2076 622 c-3 -5 1 -9 9 -9 8 0 12 4 9 9 -3 4 -7 8 -9 8 -2 0 -6 -4
-9 -8z"/>
<path d="M2006 603 c-6 -14 -5 -15 5 -6 7 7 10 15 7 18 -3 3 -9 -2 -12 -12z"/>
<path d="M2075 591 c-6 -11 13 -26 22 -17 4 3 1 6 -6 6 -7 0 -9 5 -6 10 3 6 4
10 1 10 -3 0 -7 -4 -11 -9z"/>
<path d="M2013 577 c-3 -5 -2 -11 1 -14 3 -4 6 -1 6 6 0 7 4 10 8 7 4 -2 14
-1 22 4 11 7 9 9 -8 7 -13 -1 -26 -5 -29 -10z"/>
<path d="M2050 556 c0 -23 16 -27 31 -8 13 16 13 16 -5 2 -18 -14 -19 -13 -13
3 3 9 2 17 -3 17 -6 0 -10 -6 -10 -14z"/>
<path d="M2019 533 c14 -28 14 -36 -1 -27 -7 4 -8 3 -4 -4 10 -17 14 -15 27
11 6 12 8 19 4 15 -4 -4 -14 0 -22 10 -13 15 -13 15 -4 -5z"/>
<path d="M2406 538 c3 -5 10 -6 15 -3 13 9 11 12 -6 12 -8 0 -12 -4 -9 -9z"/>
<path d="M2496 522 c-3 -5 1 -9 9 -9 8 0 12 4 9 9 -3 4 -7 8 -9 8 -2 0 -6 -4
-9 -8z"/>
<path d="M2570 520 c0 -5 5 -10 11 -10 5 0 7 5 4 10 -3 6 -8 10 -11 10 -2 0
-4 -4 -4 -10z"/>
<path d="M2070 511 c0 -6 5 -13 12 -17 6 -4 8 -3 4 4 -3 5 0 13 6 15 8 3 6 6
-4 6 -10 1 -18 -3 -18 -8z"/>
<path d="M2046 478 c3 -4 9 -8 15 -8 5 0 9 4 9 8 0 5 -7 9 -15 9 -8 0 -12 -4
-9 -9z"/>
<path d="M20 464 c0 -1 6 -7 14 -13 10 -9 15 -8 19 2 3 8 -3 13 -14 13 -11 0
-19 -1 -19 -2z"/>
<path d="M2055 431 c-3 -5 0 -13 6 -17 7 -4 9 -3 5 4 -3 5 0 13 6 15 9 4 10 6
1 6 -6 1 -14 -3 -18 -8z"/>
<path d="M30 421 c0 -6 4 -12 8 -15 5 -3 9 1 9 9 0 8 -4 15 -9 15 -4 0 -8 -4
-8 -9z"/>
<path d="M2021 413 c-1 -17 16 -25 25 -12 4 7 3 9 -4 5 -5 -3 -13 0 -15 6 -4
9 -6 10 -6 1z"/>
<path d="M136 378 c3 -5 9 -7 12 -4 3 3 11 1 18 -5 8 -7 14 -7 19 1 7 12 8 11
-27 14 -15 2 -25 -1 -22 -6z"/>
<path d="M1945 366 c-9 -14 -21 -24 -25 -21 -5 3 -11 1 -14 -4 -11 -16 11 -22
24 -6 7 8 18 15 26 15 18 0 24 13 14 29 -6 10 -12 7 -25 -13z"/>
<path d="M1805 279 c1 -9 9 -27 18 -40 16 -24 17 -24 32 -5 14 18 13 22 -5 41
-24 26 -47 28 -45 4z m55 -26 c0 -1 -8 1 -17 4 -16 6 -16 5 -4 -10 7 -9 10
-17 6 -17 -13 0 -33 33 -28 46 3 9 10 8 24 -4 10 -9 19 -18 19 -19z"/>
<path d="M205 271 c1 -9 8 -17 16 -17 8 -1 20 -2 27 -3 7 0 11 -5 7 -10 -3 -6
-14 -8 -25 -6 -11 2 -23 -1 -26 -7 -5 -7 -2 -8 6 -3 9 6 12 4 8 -7 -4 -8 -1
-15 7 -15 7 0 11 5 9 12 -3 6 5 11 17 12 18 2 19 0 7 -14 -12 -15 -11 -15 8
-3 19 12 20 16 8 27 -18 19 -18 34 1 27 8 -4 15 -1 15 6 0 6 -4 9 -9 6 -5 -4
-12 0 -14 6 -4 10 -6 10 -6 0 -1 -8 -6 -10 -13 -6 -23 14 -46 11 -43 -5z m39
1 c2 -4 -5 -9 -17 -9 -17 -2 -19 0 -7 7 18 12 18 12 24 2z"/>
<path d="M449 185 c0 0 -2 -10 -3 -23 -3 -28 14 -44 34 -32 10 7 11 10 3 10
-7 0 -13 5 -13 11 0 5 5 7 10 4 6 -3 10 -1 10 5 0 7 -7 10 -17 6 -16 -5 -16
-4 1 8 18 14 18 15 -3 13 -11 -1 -21 -1 -22 -2z"/>
<path d="M1718 183 c7 -3 16 -2 19 1 4 3 -2 6 -13 5 -11 0 -14 -3 -6 -6z"/>
<path d="M355 169 c-4 -6 -5 -12 -2 -15 2 -3 7 2 10 11 7 17 1 20 -8 4z"/>
<path d="M1742 173 c-6 -2 -10 -9 -7 -13 3 -5 1 -11 -5 -15 -5 -3 -10 1 -10 9
0 18 -18 20 -40 5 -12 -8 -10 -9 8 -4 21 6 28 -3 22 -30 -1 -5 2 -7 6 -2 4 4
16 0 26 -10 17 -15 20 -15 43 7 14 13 23 26 20 28 -2 3 -13 -6 -24 -19 -19
-23 -20 -24 -38 -5 -17 18 -17 18 4 12 27 -9 53 28 27 38 -9 3 -16 6 -17 5 -1
0 -8 -3 -15 -6z m28 -18 c0 -8 -4 -15 -10 -15 -5 0 -10 7 -10 15 0 8 5 15 10
15 6 0 10 -7 10 -15z"/>
<path d="M745 81 c3 -3 17 -6 31 -7 13 0 22 2 19 5 -3 3 -17 6 -31 7 -13 0
-22 -2 -19 -5z"/>
<path d="M1529 71 c10 -18 52 -24 50 -7 0 5 5 13 13 18 10 8 10 9 -2 5 -8 -2
-14 -9 -13 -15 2 -6 -6 -10 -17 -9 -11 1 -20 7 -20 14 0 7 -5 13 -10 13 -7 0
-7 -6 -1 -19z"/>
<path d="M1404 72 c-13 -8 -15 -44 -2 -36 5 4 7 9 4 12 -3 3 -1 11 5 19 13 14
10 17 -7 5z"/>
<path d="M616 62 c-14 -23 11 -62 39 -61 6 0 1 5 -10 12 -11 7 -21 20 -23 31
-2 12 1 16 9 10 8 -4 10 -3 5 4 -8 14 -13 15 -20 4z"/>
<path d="M1510 61 c0 -6 4 -13 10 -16 6 -3 7 1 4 9 -7 18 -14 21 -14 7z"/>
<path d="M522 44 c10 -10 20 -16 22 -13 3 3 -5 11 -17 18 -21 13 -21 12 -5 -5z"/>
<path d="M1592 45 c4 -4 0 -13 -9 -20 -13 -10 -14 -13 -2 -20 8 -5 11 -5 7 0
-4 4 0 13 9 20 13 10 14 13 2 20 -8 5 -11 5 -7 0z"/>
<path d="M1548 33 c7 -3 16 -2 19 1 4 3 -2 6 -13 5 -11 0 -14 -3 -6 -6z"/>
<path d="M670 20 c0 -5 5 -10 10 -10 6 0 10 5 10 10 0 6 -4 10 -10 10 -5 0
-10 -4 -10 -10z"/>
<path d="M1516 13 c-6 -14 -5 -15 5 -6 7 7 10 15 7 18 -3 3 -9 -2 -12 -12z"/>
</g>
</svg>
